<?xml version="1.0" encoding="utf-8"?>
<!-- Generator: Adobe Illustrator 24.1.2, SVG Export Plug-In . SVG Version: 6.00 Build 0)  -->
<svg version="1.1" id="Layer_1" xmlns="http://www.w3.org/2000/svg" xmlns:xlink="http://www.w3.org/1999/xlink" x="0px" y="0px"
	 viewBox="0 0 290 192.24" style="enable-background:new 0 0 290 192.24;" xml:space="preserve">
<style type="text/css">
	.st0{opacity:0.05;fill:none;stroke:#4A6646;stroke-miterlimit:10;}
	.st1{opacity:0.15;fill:none;stroke:#4A6646;stroke-miterlimit:10;}
	.st2{opacity:0.2;fill:none;stroke:#4A6646;stroke-miterlimit:10;}
	.st3{fill:none;stroke:#4A6646;stroke-width:3;stroke-miterlimit:10;}
</style>
<line class="st0" x1="25.5" y1="12.97" x2="25.5" y2="164.02"/>
<line class="st0" x1="42.5" y1="13.24" x2="42.5" y2="167.74"/>
<line class="st1" x1="59.5" y1="13.24" x2="59.5" y2="167.74"/>
<line class="st0" x1="76.5" y1="13.24" x2="76.5" y2="167.74"/>
<line class="st0" x1="93.5" y1="13.24" x2="93.5" y2="167.74"/>
<line class="st0" x1="110.5" y1="13.24" x2="110.5" y2="167.74"/>
<line class="st0" x1="127.5" y1="13.24" x2="127.5" y2="167.74"/>
<line class="st1" x1="144.5" y1="30.24" x2="144.5" y2="167.74"/>
<line class="st0" x1="161.5" y1="46.24" x2="161.5" y2="167.74"/>
<line class="st0" x1="178.5" y1="46.24" x2="178.5" y2="167.74"/>
<line class="st0" x1="195.5" y1="46.24" x2="195.5" y2="167.74"/>
<line class="st0" x1="212.5" y1="81.24" x2="212.5" y2="167.74"/>
<line class="st2" x1="229.5" y1="98.24" x2="229.5" y2="167.74"/>
<line class="st0" x1="246.5" y1="98.24" x2="246.5" y2="167.74"/>
<line class="st0" x1="263.5" y1="114.97" x2="263.5" y2="164.02"/>
<line class="st0" x1="286" y1="148.74" x2="7" y2="148.74"/>
<line class="st1" x1="286" y1="131.74" x2="7" y2="131.74"/>
<line class="st0" x1="286" y1="114.74" x2="7" y2="114.74"/>
<line class="st0" x1="247" y1="97.74" x2="7" y2="97.74"/>
<line class="st0" x1="213" y1="80.74" x2="7" y2="80.74"/>
<line class="st0" x1="196" y1="63.74" x2="7" y2="63.74"/>
<line class="st1" x1="196" y1="45.74" x2="7" y2="45.74"/>
<line class="st0" x1="146" y1="29.74" x2="7" y2="29.74"/>
<line class="st0" x1="127" y1="12.74" x2="10" y2="12.74"/>
<polyline class="st3" points="4,67.24 25.5,54.31 42.5,59.99 59.5,39.74 93.5,82.74 110.5,63.74 144.5,80.74 161.5,75.74 172,85.24 
	"/>
</svg>
