<?xml version="1.0" encoding="utf-8"?>
<!-- Generator: Adobe Illustrator 24.1.2, SVG Export Plug-In . SVG Version: 6.00 Build 0)  -->
<svg version="1.1" id="Layer_1" xmlns="http://www.w3.org/2000/svg" xmlns:xlink="http://www.w3.org/1999/xlink" x="0px" y="0px"
	 viewBox="0 0 495 502.24" style="enable-background:new 0 0 495 502.24;" xml:space="preserve">
<style type="text/css">
	.st0{fill:url(#SVGID_1_);}
	.st1{fill:url(#SVGID_2_);stroke:#7DAA79;stroke-width:3;stroke-miterlimit:10;}
	.st2{fill:url(#SVGID_3_);stroke:#841E1E;stroke-width:3;stroke-miterlimit:10;}
	.st3{opacity:0.15;fill:none;stroke:#7DAA79;stroke-miterlimit:10;}
	.st4{opacity:0.3;fill:none;stroke:#7DAA79;stroke-miterlimit:10;}
	.st5{fill:#FFFFFF;stroke:#7DAA79;stroke-width:3;stroke-miterlimit:10;}
	.st6{fill:#C45B26;stroke:#7DAA79;stroke-width:3;stroke-miterlimit:10;}
	.st7{fill:#387733;stroke:#7DAA79;stroke-width:3;stroke-miterlimit:10;}
	.st8{fill:url(#SVGID_4_);stroke:#7DAA79;stroke-width:3;stroke-miterlimit:10;}
	.st9{opacity:0.15;fill:none;stroke:#7DAA79;stroke-width:3;stroke-miterlimit:10;}
	.st10{fill:url(#SVGID_5_);stroke:#7DAA79;stroke-width:3;stroke-miterlimit:10;}
	.st11{fill:url(#SVGID_6_);stroke:#7DAA79;stroke-width:3;stroke-miterlimit:10;}
	.st12{fill:url(#SVGID_7_);stroke:#7DAA79;stroke-width:3;stroke-miterlimit:10;}
	.st13{fill:url(#SVGID_8_);stroke:#7DAA79;stroke-width:3;stroke-miterlimit:10;}
	.st14{fill:url(#SVGID_9_);stroke:#7DAA79;stroke-width:3;stroke-miterlimit:10;}
	.st15{fill:url(#SVGID_10_);stroke:#7DAA79;stroke-width:3;stroke-miterlimit:10;}
	.st16{fill:url(#SVGID_11_);stroke:#7DAA79;stroke-width:3;stroke-miterlimit:10;}
	.st17{fill:url(#SVGID_12_);stroke:#7DAA79;stroke-width:3;stroke-miterlimit:10;}
	.st18{fill:url(#SVGID_13_);stroke:#7DAA79;stroke-width:3;stroke-miterlimit:10;}
	.st19{fill:url(#SVGID_14_);stroke:#7DAA79;stroke-width:3;stroke-miterlimit:10;}
	.st20{fill:url(#SVGID_15_);stroke:#7DAA79;stroke-width:3;stroke-miterlimit:10;}
	.st21{fill:url(#SVGID_16_);stroke:#7DAA79;stroke-width:3;stroke-miterlimit:10;}
	.st22{fill:url(#SVGID_17_);stroke:#7DAA79;stroke-width:3;stroke-miterlimit:10;}
	.st23{fill:url(#SVGID_18_);stroke:#7DAA79;stroke-width:3;stroke-miterlimit:10;}
	.st24{fill:url(#SVGID_19_);stroke:#7DAA79;stroke-width:3;stroke-miterlimit:10;}
	.st25{fill:url(#SVGID_20_);stroke:#7DAA79;stroke-width:3;stroke-miterlimit:10;}
	.st26{fill:url(#SVGID_21_);stroke:#7DAA79;stroke-width:3;stroke-miterlimit:10;}
	.st27{fill:url(#SVGID_22_);stroke:#7DAA79;stroke-width:3;stroke-miterlimit:10;}
	.st28{fill:url(#SVGID_23_);stroke:#7DAA79;stroke-width:3;stroke-miterlimit:10;}
	.st29{fill:url(#SVGID_24_);stroke:#7DAA79;stroke-width:3;stroke-miterlimit:10;}
</style>
<radialGradient id="SVGID_1_" cx="252.9503" cy="408.7425" r="234.7494" gradientTransform="matrix(1 0 0 0.3654 0 259.3943)" gradientUnits="userSpaceOnUse">
	<stop  offset="0" style="stop-color:#000000;stop-opacity:0.2"/>
	<stop  offset="0.1433" style="stop-color:#040404;stop-opacity:0.1713"/>
	<stop  offset="0.2712" style="stop-color:#0E0E0E;stop-opacity:0.1458"/>
	<stop  offset="0.3933" style="stop-color:#212121;stop-opacity:0.1213"/>
	<stop  offset="0.5119" style="stop-color:#3A3A3A;stop-opacity:0.0976"/>
	<stop  offset="0.6279" style="stop-color:#5C5C5C;stop-opacity:0.0744"/>
	<stop  offset="0.7419" style="stop-color:#848484;stop-opacity:0.0516"/>
	<stop  offset="0.8545" style="stop-color:#B4B4B4;stop-opacity:0.0291"/>
	<stop  offset="0.963" style="stop-color:#EBEBEB;stop-opacity:7.393122e-03"/>
	<stop  offset="1" style="stop-color:#FFFFFF;stop-opacity:0"/>
</radialGradient>
<ellipse class="st0" cx="247.5" cy="408.74" rx="247.5" ry="81.5"/>
<radialGradient id="SVGID_2_" cx="293.8478" cy="284.0903" r="175.0379" gradientTransform="matrix(1 0 0 1.1733 0 -49.2289)" gradientUnits="userSpaceOnUse">
	<stop  offset="0" style="stop-color:#D5E8D4"/>
	<stop  offset="1" style="stop-color:#93C4B0"/>
</radialGradient>
<path class="st1" d="M372.72,437.74H174.28c-22.43,0-40.78-18.35-40.78-40.78V130.53c0-22.43,18.35-40.78,40.78-40.78h198.43
	c22.43,0,40.78,18.35,40.78,40.78v266.43C413.5,419.39,395.15,437.74,372.72,437.74z"/>
<linearGradient id="SVGID_3_" gradientUnits="userSpaceOnUse" x1="265.7173" y1="123.4229" x2="291.5433" y2="16.9882">
	<stop  offset="0" style="stop-color:#8E2C2C"/>
	<stop  offset="1" style="stop-color:#BF2C2C"/>
</linearGradient>
<path class="st2" d="M227.09,89.74c0,0-18.59-22-56.59-22c0,0,29-42,71-11.19c0,0,43-46.81,125-42.81c0,0-25,13.07-58,44
	c0,0,51-16.44,78,16c0,0-31-16-63.93,16H227.09z"/>
<line class="st3" x1="154.5" y1="95.24" x2="154.5" y2="430.24"/>
<line class="st3" x1="171.5" y1="89.24" x2="171.5" y2="436.24"/>
<line class="st4" x1="188.5" y1="89.24" x2="188.5" y2="436.24"/>
<line class="st3" x1="205.5" y1="89.24" x2="205.5" y2="436.24"/>
<line class="st3" x1="222.5" y1="89.24" x2="222.5" y2="436.24"/>
<line class="st3" x1="239.5" y1="89.24" x2="239.5" y2="436.24"/>
<line class="st3" x1="256.5" y1="89.24" x2="256.5" y2="436.24"/>
<line class="st4" x1="273.5" y1="89.24" x2="273.5" y2="436.24"/>
<line class="st3" x1="290.5" y1="89.24" x2="290.5" y2="436.24"/>
<line class="st3" x1="307.5" y1="89.24" x2="307.5" y2="436.24"/>
<line class="st3" x1="324.5" y1="89.24" x2="324.5" y2="436.24"/>
<line class="st3" x1="341.5" y1="89.24" x2="341.5" y2="436.24"/>
<line class="st4" x1="358.5" y1="89.24" x2="358.5" y2="436.24"/>
<line class="st3" x1="375.5" y1="89.24" x2="375.5" y2="436.24"/>
<line class="st3" x1="392.5" y1="95.24" x2="392.5" y2="430.24"/>
<line class="st3" x1="146.5" y1="425.74" x2="401.5" y2="425.74"/>
<line class="st4" x1="411" y1="408.74" x2="137" y2="408.74"/>
<line class="st3" x1="415" y1="391.74" x2="133" y2="391.74"/>
<line class="st3" x1="415" y1="374.74" x2="133" y2="374.74"/>
<line class="st3" x1="415" y1="357.74" x2="133" y2="357.74"/>
<line class="st3" x1="415" y1="340.74" x2="133" y2="340.74"/>
<line class="st4" x1="415" y1="323.74" x2="133" y2="323.74"/>
<line class="st3" x1="390.5" y1="282.24" x2="108.5" y2="282.24"/>
<line class="st3" x1="415" y1="289.74" x2="133" y2="289.74"/>
<line class="st3" x1="415" y1="272.74" x2="133" y2="272.74"/>
<line class="st3" x1="415" y1="255.74" x2="133" y2="255.74"/>
<line class="st4" x1="415" y1="238.74" x2="133" y2="238.74"/>
<line class="st3" x1="415" y1="221.74" x2="133" y2="221.74"/>
<line class="st3" x1="415" y1="204.74" x2="133" y2="204.74"/>
<line class="st3" x1="415" y1="187.74" x2="133" y2="187.74"/>
<line class="st3" x1="415" y1="170.74" x2="133" y2="170.74"/>
<line class="st4" x1="415" y1="152.74" x2="133" y2="152.74"/>
<line class="st3" x1="415" y1="136.74" x2="133" y2="136.74"/>
<line class="st3" x1="412" y1="119.74" x2="136" y2="119.74"/>
<line class="st3" x1="144.5" y1="102.74" x2="403.5" y2="102.74"/>
<circle class="st5" cx="186" cy="126.24" r="18.5"/>
<circle class="st5" cx="363" cy="126.24" r="18.5"/>
<circle class="st6" cx="186.7" cy="126.94" r="12.7"/>
<circle class="st7" cx="362.17" cy="126.94" r="12.7"/>
<radialGradient id="SVGID_4_" cx="273.5" cy="216.7425" r="112.538" gradientTransform="matrix(1 0 0 0.8993 0 21.822)" gradientUnits="userSpaceOnUse">
	<stop  offset="0.0107" style="stop-color:#E2E6D7"/>
	<stop  offset="1" style="stop-color:#D5E1E1"/>
</radialGradient>
<path class="st8" d="M395.52,252.74H151.48c-9.34,0-16.98-7.64-16.98-16.98v-38.04c0-9.34,7.64-16.98,16.98-16.98h244.04
	c9.34,0,16.98,7.64,16.98,16.98v38.04C412.5,245.1,404.86,252.74,395.52,252.74z"/>
<line class="st9" x1="149.5" y1="180.74" x2="149.5" y2="253.24"/>
<line class="st9" x1="180.5" y1="180.74" x2="180.5" y2="253.24"/>
<line class="st9" x1="211.5" y1="180.74" x2="211.5" y2="253.24"/>
<line class="st9" x1="242.5" y1="180.74" x2="242.5" y2="253.24"/>
<line class="st9" x1="273.5" y1="180.74" x2="273.5" y2="253.24"/>
<line class="st9" x1="304.5" y1="180.74" x2="304.5" y2="253.24"/>
<line class="st9" x1="335.5" y1="180.74" x2="335.5" y2="253.24"/>
<line class="st9" x1="366.5" y1="180.74" x2="366.5" y2="253.24"/>
<line class="st9" x1="397.5" y1="180.74" x2="397.5" y2="253.24"/>
<g>
	
		<linearGradient id="SVGID_5_" gradientUnits="userSpaceOnUse" x1="119.3506" y1="170.2117" x2="171.3506" y2="170.2117" gradientTransform="matrix(0.9879 -0.155 0.155 0.9879 -41.0712 129.8572)">
		<stop  offset="0" style="stop-color:#93C4B0"/>
		<stop  offset="1" style="stop-color:#D5E8D4"/>
	</linearGradient>
	<path class="st10" d="M159.25,301.08c2.23,14.19-7.47,27.49-21.65,29.72c-14.19,2.23-27.49-7.47-29.72-21.65l-13.33-84.96
		l51.37-8.06L159.25,301.08z"/>
	
		<radialGradient id="SVGID_6_" cx="158.655" cy="116.5596" r="51.285" gradientTransform="matrix(0.9879 -0.155 0.0883 0.5624 -33.2878 179.4545)" gradientUnits="userSpaceOnUse">
		<stop  offset="0" style="stop-color:#D5E8D4"/>
		<stop  offset="1" style="stop-color:#93C4B0"/>
	</radialGradient>
	<path class="st11" d="M145.91,216.12c-1.63-10.37-14.45-16.97-28.63-14.74s-24.37,12.43-22.74,22.8s14.45,16.97,28.63,14.74
		S147.54,226.49,145.91,216.12z"/>
	<g>
		
			<radialGradient id="SVGID_7_" cx="149.2001" cy="93.5035" r="32.7425" gradientTransform="matrix(0.9879 -0.155 0.0883 0.5624 -34.8274 169.6439)" gradientUnits="userSpaceOnUse">
			<stop  offset="0" style="stop-color:#D5E8D4"/>
			<stop  offset="1" style="stop-color:#93C4B0"/>
		</radialGradient>
		<path class="st12" d="M125.88,204.59c0.56,3.55-2.75,7.01-7.39,7.74c-4.64,0.73-8.85-1.56-9.4-5.1L105.6,185l16.79-2.64
			L125.88,204.59z"/>
		
			<radialGradient id="SVGID_8_" cx="149.2001" cy="77.5149" r="17.2628" gradientTransform="matrix(0.9879 -0.155 0.0883 0.5624 -35.895 162.8406)" gradientUnits="userSpaceOnUse">
			<stop  offset="0" style="stop-color:#D5E8D4"/>
			<stop  offset="1" style="stop-color:#93C4B0"/>
		</radialGradient>
		<path class="st13" d="M122.32,181.87c0.56,3.55-2.75,7.01-7.39,7.74c-4.64,0.73-8.85-1.56-9.4-5.1c-0.56-3.55,2.75-7.01,7.39-7.74
			C117.55,176.04,121.76,178.32,122.32,181.87z"/>
	</g>
	<g>
		
			<radialGradient id="SVGID_9_" cx="156.5508" cy="274.8807" r="32.7425" gradientTransform="matrix(0.9787 0.2052 -0.1168 0.5572 17.0338 28.5141)" gradientUnits="userSpaceOnUse">
			<stop  offset="0" style="stop-color:#D5E8D4"/>
			<stop  offset="1" style="stop-color:#93C4B0"/>
		</radialGradient>
		<path class="st14" d="M140.94,220.72c-0.74,3.51-5.06,5.58-9.65,4.62c-4.59-0.96-7.72-4.59-6.99-8.11l4.62-22.02l16.64,3.49
			L140.94,220.72z"/>
		
			<radialGradient id="SVGID_10_" cx="156.5508" cy="258.8922" r="17.2628" gradientTransform="matrix(0.9787 0.2052 -0.1168 0.5572 18.4467 21.774)" gradientUnits="userSpaceOnUse">
			<stop  offset="0" style="stop-color:#D5E8D4"/>
			<stop  offset="1" style="stop-color:#93C4B0"/>
		</radialGradient>
		<path class="st15" d="M145.66,198.2c-0.74,3.51-5.06,5.58-9.65,4.62c-4.59-0.96-7.72-4.59-6.99-8.11s5.06-5.58,9.65-4.62
			S146.39,194.69,145.66,198.2z"/>
	</g>
	<g>
		
			<radialGradient id="SVGID_11_" cx="961.0057" cy="-30.0232" r="32.7425" gradientTransform="matrix(-0.8688 0.4951 0.2819 0.4946 944.636 -241.3627)" gradientUnits="userSpaceOnUse">
			<stop  offset="0" style="stop-color:#D5E8D4"/>
			<stop  offset="1" style="stop-color:#93C4B0"/>
		</radialGradient>
		<path class="st16" d="M100.69,227.03c1.78,3.12,6.52,3.76,10.6,1.44s5.94-6.74,4.17-9.86l-11.14-19.55l-14.77,8.42L100.69,227.03z
			"/>
		
			<radialGradient id="SVGID_12_" cx="961.0057" cy="-46.0117" r="17.2628" gradientTransform="matrix(-0.8688 0.4951 0.2819 0.4946 941.2265 -247.346)" gradientUnits="userSpaceOnUse">
			<stop  offset="0" style="stop-color:#D5E8D4"/>
			<stop  offset="1" style="stop-color:#93C4B0"/>
		</radialGradient>
		<path class="st17" d="M89.3,207.05c1.78,3.12,6.52,3.76,10.6,1.44s5.94-6.74,4.17-9.86s-6.52-3.76-10.6-1.44
			S87.52,203.93,89.3,207.05z"/>
	</g>
</g>
<g>
	
		<linearGradient id="SVGID_13_" gradientUnits="userSpaceOnUse" x1="1795.5221" y1="435.282" x2="1847.5221" y2="435.282" gradientTransform="matrix(-0.9879 -0.155 -0.155 0.9879 2292.2632 129.8572)">
		<stop  offset="0" style="stop-color:#93C4B0"/>
		<stop  offset="1" style="stop-color:#D5E8D4"/>
	</linearGradient>
	<path class="st18" d="M394.94,303.08c-2.23,14.19,7.47,27.49,21.65,29.72c14.19,2.23,27.49-7.47,29.72-21.65l13.33-84.96
		l-51.37-8.06L394.94,303.08z"/>
	
		<radialGradient id="SVGID_14_" cx="1834.8264" cy="381.6299" r="51.285" gradientTransform="matrix(-0.9879 -0.155 -0.0883 0.5624 2266.7793 292.2446)" gradientUnits="userSpaceOnUse">
		<stop  offset="0" style="stop-color:#D5E8D4"/>
		<stop  offset="1" style="stop-color:#93C4B0"/>
	</radialGradient>
	<path class="st19" d="M408.28,218.12c1.63-10.37,14.45-16.97,28.63-14.74c14.19,2.23,24.37,12.43,22.74,22.8
		c-1.63,10.37-14.45,16.97-28.63,14.74C416.83,238.7,406.65,228.49,408.28,218.12z"/>
	<g>
		
			<radialGradient id="SVGID_15_" cx="1825.3716" cy="358.5738" r="32.7425" gradientTransform="matrix(-0.9879 -0.155 -0.0883 0.5624 2268.3188 282.4341)" gradientUnits="userSpaceOnUse">
			<stop  offset="0" style="stop-color:#D5E8D4"/>
			<stop  offset="1" style="stop-color:#93C4B0"/>
		</radialGradient>
		<path class="st20" d="M428.31,206.59c-0.56,3.55,2.75,7.01,7.39,7.74s8.85-1.56,9.4-5.1l3.49-22.23l-16.79-2.64L428.31,206.59z"/>
		
			<radialGradient id="SVGID_16_" cx="1825.3716" cy="342.5852" r="17.2628" gradientTransform="matrix(-0.9879 -0.155 -0.0883 0.5624 2269.3865 275.6307)" gradientUnits="userSpaceOnUse">
			<stop  offset="0" style="stop-color:#D5E8D4"/>
			<stop  offset="1" style="stop-color:#93C4B0"/>
		</radialGradient>
		<path class="st21" d="M431.87,183.87c-0.56,3.55,2.75,7.01,7.39,7.74c4.64,0.73,8.85-1.56,9.4-5.1c0.56-3.55-2.75-7.01-7.39-7.74
			S432.43,180.32,431.87,183.87z"/>
	</g>
	<g>
		
			<radialGradient id="SVGID_17_" cx="1817.8634" cy="-71.3177" r="32.7425" gradientTransform="matrix(-0.9787 0.2052 0.1168 0.5572 2203.5659 -117.428)" gradientUnits="userSpaceOnUse">
			<stop  offset="0" style="stop-color:#D5E8D4"/>
			<stop  offset="1" style="stop-color:#93C4B0"/>
		</radialGradient>
		<path class="st22" d="M413.25,222.72c0.74,3.51,5.06,5.58,9.65,4.62c4.59-0.96,7.72-4.59,6.99-8.11l-4.62-22.02l-16.64,3.49
			L413.25,222.72z"/>
		
			<radialGradient id="SVGID_18_" cx="1817.8634" cy="-87.3063" r="17.2628" gradientTransform="matrix(-0.9787 0.2052 0.1168 0.5572 2202.1531 -124.1681)" gradientUnits="userSpaceOnUse">
			<stop  offset="0" style="stop-color:#D5E8D4"/>
			<stop  offset="1" style="stop-color:#93C4B0"/>
		</radialGradient>
		<path class="st23" d="M408.53,200.2c0.74,3.51,5.06,5.58,9.65,4.62c4.59-0.96,7.72-4.59,6.99-8.11c-0.74-3.51-5.06-5.58-9.65-4.62
			S407.8,196.69,408.53,200.2z"/>
	</g>
	<g>
		
			<radialGradient id="SVGID_19_" cx="-512.4164" cy="811.9033" r="32.7425" gradientTransform="matrix(0.8688 0.4951 -0.2819 0.4946 1127.0155 73.7053)" gradientUnits="userSpaceOnUse">
			<stop  offset="0" style="stop-color:#D5E8D4"/>
			<stop  offset="1" style="stop-color:#93C4B0"/>
		</radialGradient>
		<path class="st24" d="M453.51,229.03c-1.78,3.12-6.52,3.76-10.6,1.44s-5.94-6.74-4.17-9.86l11.14-19.55l14.77,8.42L453.51,229.03z
			"/>
		
			<radialGradient id="SVGID_20_" cx="-512.4164" cy="795.9147" r="17.2628" gradientTransform="matrix(0.8688 0.4951 -0.2819 0.4946 1130.425 67.722)" gradientUnits="userSpaceOnUse">
			<stop  offset="0" style="stop-color:#D5E8D4"/>
			<stop  offset="1" style="stop-color:#93C4B0"/>
		</radialGradient>
		<path class="st25" d="M464.89,209.05c-1.78,3.12-6.52,3.76-10.6,1.44s-5.94-6.74-4.17-9.86s6.52-3.76,10.6-1.44
			S466.67,205.93,464.89,209.05z"/>
	</g>
</g>
<g>
	
		<radialGradient id="SVGID_21_" cx="169.4762" cy="438.9925" r="66.2903" gradientTransform="matrix(1 0 0 0.8287 0 75.1878)" gradientUnits="userSpaceOnUse">
		<stop  offset="0" style="stop-color:#D5E8D4"/>
		<stop  offset="1" style="stop-color:#93C4B0"/>
	</radialGradient>
	<path class="st26" d="M214,423.41c0,17.21-22.26,62.33-56.4,62.33c-17.21,0-32.65-32.51-32.65-49.72
		c0-17.21,40.67-43.78,57.88-43.78S214,406.2,214,423.41z"/>
	
		<radialGradient id="SVGID_22_" cx="157.6032" cy="448.6393" r="53.8785" gradientTransform="matrix(1 0 0 0.8287 0 76.84)" gradientUnits="userSpaceOnUse">
		<stop  offset="0" style="stop-color:#D5E8D4"/>
		<stop  offset="1" style="stop-color:#93C4B0"/>
	</radialGradient>
	<circle class="st27" cx="157.6" cy="448.64" r="37.1"/>
</g>
<g>
	
		<radialGradient id="SVGID_23_" cx="1228.4762" cy="440.9925" r="66.2903" gradientTransform="matrix(-1 0 0 0.8287 1601.5 75.5303)" gradientUnits="userSpaceOnUse">
		<stop  offset="0" style="stop-color:#D5E8D4"/>
		<stop  offset="1" style="stop-color:#93C4B0"/>
	</radialGradient>
	<path class="st28" d="M328.5,425.41c0,17.21,22.26,62.33,56.4,62.33c17.21,0,32.65-32.51,32.65-49.72
		c0-17.21-40.67-43.78-57.88-43.78C342.45,394.24,328.5,408.2,328.5,425.41z"/>
	
		<radialGradient id="SVGID_24_" cx="1216.6031" cy="450.6393" r="53.8785" gradientTransform="matrix(-1 0 0 0.8287 1601.5 77.1825)" gradientUnits="userSpaceOnUse">
		<stop  offset="0" style="stop-color:#D5E8D4"/>
		<stop  offset="1" style="stop-color:#93C4B0"/>
	</radialGradient>
	<circle class="st29" cx="384.9" cy="450.64" r="37.1"/>
</g>
</svg>
